<?xml version="1.0" encoding="utf-8"?>
<!-- Generator: Adobe Illustrator 26.0.1, SVG Export Plug-In . SVG Version: 6.00 Build 0)  -->
<svg version="1.1" id="Layer_1" xmlns="http://www.w3.org/2000/svg" xmlns:xlink="http://www.w3.org/1999/xlink" x="0px" y="0px"
	 viewBox="0 0 40 40" style="enable-background:new 0 0 40 40;" xml:space="preserve">
<style type="text/css">
	.st0{fill:#FFFFFF;}
</style>
<g>
	<path class="st0" d="M1.68,27.5c0-1.17-0.01-2.34,0-3.51c0.02-2.15,1.36-3.86,3.46-4.24c0.68-0.12,0.78-0.42,0.76-0.99
		c-0.1-2.5,0.07-4.95,1.06-7.31c2.38-5.7,8.37-9.23,14.63-8.57c6.11,0.64,11.26,5.47,12.33,11.52c0.26,1.46,0.17,2.92,0.18,4.37
		c0,0.58,0.11,0.86,0.77,0.98c2.06,0.38,3.43,2.08,3.44,4.16c0.01,2.37,0.02,4.74,0,7.11c-0.02,2.41-1.81,4.21-4.22,4.24
		c-1.35,0.01-2.69,0.01-4.04,0c-1.17-0.01-1.69-0.51-1.69-1.64c-0.01-4.1-0.01-8.19,0-12.29c0-1.14,0.52-1.68,1.69-1.63
		c0.89,0.04,1.13-0.24,1.14-1.13c0.03-2.9-0.39-5.64-2.12-8.08c-2.54-3.6-7.15-5.4-11.43-4.42c-4.46,1.01-7.89,4.56-8.61,8.93
		c-0.22,1.33-0.23,2.68-0.21,4.02c0.01,0.5,0.22,0.64,0.69,0.67c1.91,0.11,2.12,0.35,2.12,2.26c0,3.8,0,7.61,0,11.41
		c0,1.44-0.45,1.89-1.89,1.89c-1.26,0-2.52,0.01-3.77,0c-2.51-0.02-4.28-1.81-4.3-4.34C1.67,29.79,1.68,28.65,1.68,27.5z M8.7,27.48
		c0-1.37-0.01-2.74,0.01-4.12c0.01-0.51-0.15-0.77-0.7-0.74c-0.61,0.03-1.23-0.02-1.84,0.02c-0.98,0.05-1.52,0.57-1.54,1.55
		c-0.03,2.19-0.03,4.38,0,6.57c0.01,0.98,0.55,1.5,1.53,1.56c0.58,0.03,1.17-0.02,1.75,0.02c0.63,0.04,0.81-0.24,0.8-0.83
		C8.68,30.17,8.7,28.82,8.7,27.48z M31.3,27.48c0,1.37,0.01,2.74-0.01,4.12c-0.01,0.51,0.16,0.76,0.7,0.74
		c0.61-0.03,1.23,0.02,1.84-0.02c0.98-0.05,1.52-0.57,1.53-1.56c0.03-2.19,0.03-4.38,0-6.57c-0.01-0.98-0.56-1.5-1.53-1.56
		c-0.58-0.03-1.17,0.02-1.75-0.02c-0.63-0.04-0.81,0.24-0.79,0.83C31.32,24.79,31.3,26.14,31.3,27.48z"/>
	<path class="st0" d="M18.53,26.74c0-1.34-0.01-2.69,0-4.03c0.01-1.01,0.56-1.6,1.45-1.61c0.89-0.01,1.47,0.59,1.47,1.59
		c0.01,2.72,0.01,5.43,0,8.15c0,1.01-0.57,1.6-1.45,1.61c-0.89,0.01-1.46-0.59-1.47-1.59C18.52,29.49,18.53,28.12,18.53,26.74z"/>
	<path class="st0" d="M17.25,28.21c0,0.91,0.02,1.81-0.01,2.72c-0.02,0.94-0.59,1.52-1.44,1.53c-0.86,0.01-1.46-0.57-1.48-1.49
		c-0.02-1.84-0.02-3.68,0-5.52c0.01-0.94,0.58-1.52,1.44-1.53c0.89-0.01,1.46,0.58,1.48,1.58C17.27,26.39,17.25,27.3,17.25,28.21z"
		/>
	<path class="st0" d="M22.74,28.09c0-0.88-0.02-1.75,0-2.63c0.02-0.99,0.61-1.58,1.5-1.55c0.85,0.02,1.41,0.6,1.42,1.55
		c0.02,1.81,0.02,3.62,0,5.43c-0.01,0.98-0.61,1.58-1.5,1.55c-0.85-0.02-1.4-0.61-1.42-1.55C22.73,29.96,22.74,29.03,22.74,28.09z"
		/>
</g>
</svg>
