<?xml version="1.0" encoding="utf-8"?>
<!-- Generator: Adobe Illustrator 26.0.1, SVG Export Plug-In . SVG Version: 6.00 Build 0)  -->
<svg version="1.1" id="Layer_1" xmlns="http://www.w3.org/2000/svg" xmlns:xlink="http://www.w3.org/1999/xlink" x="0px" y="0px"
	 viewBox="0 0 40 40" style="enable-background:new 0 0 40 40;" xml:space="preserve">
<style type="text/css">
	.st0{fill:#FFFFFF;}
</style>
<rect x="13.08" y="12.37" class="st0" width="16.65" height="1"/>
<rect x="13.08" y="15.91" class="st0" width="16.65" height="1"/>
<path class="st0" d="M10.29,14.94v2.05h2.05v-2.05H10.29z M11.88,16.54h-1.13V15.4h1.13V16.54z"/>
<path class="st0" d="M10.29,11.41v2.05h2.05v-2.05H10.29z M11.88,13h-1.13v-1.13h1.13V13z"/>
<path class="st0" d="M10.29,18.17v2.06h2.05v-2.06H10.29z M11.88,19.77h-1.13v-1.14h1.13V19.77z"/>
<rect x="13.08" y="19.14" class="st0" width="16.65" height="1"/>
<g>
	<path class="st0" d="M19.99,4.56c4.47,0,8.93,0,13.4,0c0.79,0,1.57,0.09,2.23,0.58c0.73,0.54,1.16,1.25,1.16,2.16
		c0.01,6.6,0.02,13.2,0,19.8c0,1.58-1.29,2.72-2.98,2.73c-2.88,0.02-5.75,0-8.63,0.01c-0.87,0-0.88,0-0.81,0.9
		c0.06,0.72,0.21,1.42,0.52,2.08c0.26,0.53,0.61,0.94,1.25,1.03c0.49,0.06,0.92,0.27,0.87,0.86c-0.05,0.58-0.51,0.73-1,0.73
		c-1.48,0.02-2.96,0.01-4.44,0.01c-2.4,0-4.79,0-7.19,0c-0.28,0-0.57,0.01-0.84-0.09c-0.32-0.12-0.52-0.33-0.53-0.67
		c-0.02-0.34,0.14-0.66,0.47-0.71c1.69-0.24,1.92-1.57,2.16-2.87c0.23-1.26,0.2-1.26-1.06-1.26c-2.7,0-5.4,0-8.1,0
		c-2.12,0-3.23-1.11-3.24-3.22c0-6.27,0.04-12.55-0.02-18.82C3.19,6.02,4.3,4.55,6.46,4.55C10.97,4.56,15.48,4.56,19.99,4.56z
		 M20.01,24.14c4.34,0,8.67-0.01,13.01,0.01c0.67,0,0.85-0.19,0.85-0.85c-0.02-4.99-0.02-9.98,0-14.97c0-0.66-0.18-0.85-0.85-0.85
		C24.35,7.5,15.68,7.5,7,7.48c-0.66,0-0.85,0.19-0.85,0.85c0.02,4.99,0.02,9.98,0,14.97c0,0.66,0.18,0.85,0.85,0.85
		C11.34,24.12,15.68,24.14,20.01,24.14z M18.73,26.95c-0.01,0.74,0.58,1.35,1.3,1.34c0.69-0.01,1.26-0.59,1.27-1.3
		c0.01-0.76-0.55-1.33-1.3-1.32C19.28,25.67,18.73,26.22,18.73,26.95z"/>
</g>
</svg>
