<?xml version="1.0" encoding="utf-8"?>
<!-- Generator: Adobe Illustrator 26.0.1, SVG Export Plug-In . SVG Version: 6.00 Build 0)  -->
<svg version="1.1" id="Layer_1" xmlns="http://www.w3.org/2000/svg" xmlns:xlink="http://www.w3.org/1999/xlink" x="0px" y="0px"
	 viewBox="0 0 40 40" style="enable-background:new 0 0 40 40;" xml:space="preserve">
<style type="text/css">
	.st0{fill:#FFFFFF;}
</style>
<g>
	<path class="st0" d="M20,12.18c7.37,0.36,12.89,3.66,16.32,10.28c0.38,0.73,0.36,0.74-0.4,1.08c-2.49,1.1-4.98,2.19-7.46,3.3
		c-0.46,0.21-0.66,0.11-0.9-0.32c-1.66-2.92-4.15-4.52-7.54-4.53c-3.42-0.01-5.92,1.6-7.61,4.53c-0.22,0.38-0.38,0.55-0.84,0.34
		c-2.54-1.15-5.09-2.27-7.64-3.38c-0.49-0.21-0.59-0.43-0.34-0.92c3.04-5.94,7.83-9.39,14.47-10.25
		C18.69,12.24,19.33,12.21,20,12.18z M19.95,19.48c1.25,0.01,2.18-0.89,2.2-2.13c0.02-1.21-0.94-2.2-2.14-2.21
		c-1.21-0.01-2.19,0.95-2.2,2.15C17.8,18.53,18.71,19.47,19.95,19.48z"/>
	<path class="st0" d="M21.99,28.77c1.1-0.57,2.2-1.15,3.3-1.72c0.21-0.11,0.42-0.23,0.64-0.31c0.32-0.12,0.61-0.06,0.78,0.26
		c0.16,0.31,0.07,0.6-0.22,0.79c-0.23,0.16-0.48,0.29-0.73,0.42c-1.51,0.79-3.03,1.56-4.53,2.37c-0.86,0.46-1.67,0.46-2.52,0
		c-1.63-0.88-3.28-1.74-4.92-2.6c-0.41-0.22-0.81-0.48-0.53-0.99c0.28-0.52,0.74-0.31,1.13-0.1c1.18,0.62,2.36,1.25,3.6,1.91
		c0.04-0.32-0.14-0.49-0.25-0.67c-0.61-0.99-1.22-1.98-1.84-2.98c-0.23-0.37-0.41-0.78,0.07-1.07c0.47-0.28,0.76,0.06,0.99,0.43
		c0.73,1.17,1.45,2.34,2.19,3.53c0.25-0.2,0.15-0.44,0.16-0.63c0.01-1.19,0-2.38,0.01-3.56c0.01-0.42,0.07-0.88,0.62-0.9
		c0.59-0.02,0.67,0.46,0.67,0.91c0.02,1.14,0,2.29,0.01,3.43c0,0.23-0.06,0.47,0.13,0.79c0.19-0.31,0.36-0.57,0.52-0.83
		c0.57-0.92,1.14-1.84,1.71-2.75c0.23-0.37,0.53-0.7,1-0.41c0.48,0.3,0.28,0.7,0.05,1.07c-0.6,0.97-1.2,1.95-1.8,2.92
		c-0.12,0.19-0.23,0.39-0.34,0.59C21.93,28.71,21.96,28.74,21.99,28.77z"/>
</g>
</svg>
